<svg xmlns="http://www.w3.org/2000/svg" width="100" height="100" viewBox="0 0 100 100" fill="none">
  <g clip-path="url(#clip0_2546_7248)">
    <g opacity="0.1">
      <path d="M89.13 42.44C85.31 24.34 69.24 10.75 50 10.75C30.76 10.75 14.69 24.34 10.87 42.44C4.29 46.5 0 53.74 0 62C0 74.68 10.32 85 23 85C24.81 85 26.59 84.77 28.33 84.36C34.58 88.4 42.01 90.75 50 90.75C57.99 90.75 65.43 88.4 71.67 84.36C73.4 84.77 75.18 85 77 85C89.68 85 100 74.68 100 62C100 53.74 95.71 46.5 89.13 42.44Z" fill="#2385DD"/>
    </g>
    <g opacity="0.2">
      <path d="M78.58 45.08C76.24 31.41 64.34 21 50 21C35.66 21 23.76 31.41 21.42 45.08C12.77 45.88 6 53.14 6 62C6 71.39 13.61 79 23 79C27.44 79 31.47 77.29 34.49 74.5C38.98 77.35 44.29 79 50 79C55.71 79 61.02 77.35 65.51 74.5C68.54 77.28 72.57 79 77 79C86.39 79 94 71.39 94 62C94 53.14 87.23 45.88 78.58 45.08Z" fill="#2385DD"/>
    </g>
    <path d="M47 75H26V19C26 17.34 27.34 16 29 16H42L47 21.15V75Z" fill="white" stroke="#4C5866" stroke-width="2" stroke-miterlimit="10"/>
    <path d="M29 21H71C72.66 21 74 22.34 74 24V80H26V24C26 22.34 27.34 21 29 21Z" fill="white" stroke="#4C5866" stroke-width="2" stroke-miterlimit="10"/>
    <path d="M63 30H36C35.4477 30 35 30.4477 35 31V39C35 39.5523 35.4477 40 36 40H63C63.5523 40 64 39.5523 64 39V31C64 30.4477 63.5523 30 63 30Z" fill="#E7EEF5"/>
    <path d="M63 31V39H36V31H63ZM63 29H36C34.9 29 34 29.9 34 31V39C34 40.1 34.9 41 36 41H63C64.1 41 65 40.1 65 39V31C65 29.9 64.1 29 63 29Z" fill="#8095AD"/>
    <path d="M58 62C60.21 62 62 63.79 62 66C62 68.21 60.21 70 58 70C55.79 70 54 68.21 54 66C54 63.79 55.79 62 58 62ZM58 60C54.69 60 52 62.69 52 66C52 69.31 54.69 72 58 72C61.31 72 64 69.31 64 66C64 62.69 61.31 60 58 60Z" fill="#2385DD"/>
    <path d="M54.9999 45.3899C54.7899 45.3899 54.6099 45.2199 54.6099 44.9999C54.6099 44.7799 54.7799 44.6099 54.9999 44.6099H61.9999C62.2099 44.6099 62.3899 44.7799 62.3899 44.9999C62.3899 45.2199 62.2199 45.3899 61.9999 45.3899H54.9999Z" fill="white"/>
    <path d="M62 44H55C54.45 44 54 44.45 54 45C54 45.55 54.45 46 55 46H62C62.55 46 63 45.55 63 45C63 44.45 62.55 44 62 44Z" fill="#4C5866"/>
    <path d="M54.9998 48.4098C54.7698 48.4098 54.5898 48.2298 54.5898 47.9998C54.5898 47.7698 54.7698 47.5898 54.9998 47.5898H63.4998C63.7298 47.5898 63.9098 47.7698 63.9098 47.9998C63.9098 48.2298 63.7298 48.4098 63.4998 48.4098H54.9998Z" fill="white"/>
    <path d="M63.5 47H55C54.45 47 54 47.45 54 48C54 48.55 54.45 49 55 49H63.5C64.05 49 64.5 48.55 64.5 48C64.5 47.45 64.05 47 63.5 47Z" fill="#8095AD"/>
    <path d="M55.0001 51.4201C54.7701 51.4201 54.5801 51.2301 54.5801 51.0001C54.5801 50.7701 54.7701 50.5801 55.0001 50.5801H63.0001C63.2301 50.5801 63.4201 50.7701 63.4201 51.0001C63.4201 51.2301 63.2301 51.4201 63.0001 51.4201H55.0001Z" fill="white"/>
    <path d="M63 50H55C54.45 50 54 50.45 54 51C54 51.55 54.45 52 55 52H63C63.55 52 64 51.55 64 51C64 50.45 63.55 50 63 50Z" fill="#BEC9D6"/>
    <path d="M55.0001 54.4201C54.7701 54.4201 54.5801 54.2301 54.5801 54.0001C54.5801 53.7701 54.7701 53.5801 55.0001 53.5801H61.0001C61.2301 53.5801 61.4201 53.7701 61.4201 54.0001C61.4201 54.2301 61.2301 54.4201 61.0001 54.4201H55.0001Z" fill="white"/>
    <path d="M61 53H55C54.45 53 54 53.45 54 54C54 54.55 54.45 55 55 55H61C61.55 55 62 54.55 62 54C62 53.45 61.55 53 61 53Z" fill="#E7EEF5"/>
    <path d="M46.1401 60.5801H40.8701C40.7099 60.5801 40.5801 60.7099 40.5801 60.8701V61.1401C40.5801 61.3002 40.7099 61.4301 40.8701 61.4301H46.1401C46.3002 61.4301 46.4301 61.3002 46.4301 61.1401V60.8701C46.4301 60.7099 46.3002 60.5801 46.1401 60.5801Z" fill="white"/>
    <path d="M46.1302 60H40.8602C40.3802 60 39.9902 60.39 39.9902 60.87V61.14C39.9902 61.62 40.3802 62.01 40.8602 62.01H46.1302C46.6102 62.01 47.0002 61.62 47.0002 61.14V60.87C47.0002 60.39 46.6102 60 46.1302 60Z" fill="#4C5866"/>
    <path d="M48.1401 65.5801H40.8701C40.7099 65.5801 40.5801 65.7099 40.5801 65.8701V66.1401C40.5801 66.3002 40.7099 66.4301 40.8701 66.4301H48.1401C48.3002 66.4301 48.4301 66.3002 48.4301 66.1401V65.8701C48.4301 65.7099 48.3002 65.5801 48.1401 65.5801Z" fill="#E7EEF5"/>
    <path d="M48.1302 65H40.8602C40.3802 65 39.9902 65.39 39.9902 65.87V66.14C39.9902 66.62 40.3802 67.01 40.8602 67.01H48.1302C48.6102 67.01 49.0002 66.62 49.0002 66.14V65.87C49.0002 65.39 48.6102 65 48.1302 65Z" fill="#8095AD"/>
    <path d="M44.1401 70.5801H40.8701C40.7099 70.5801 40.5801 70.7099 40.5801 70.8701V71.1401C40.5801 71.3002 40.7099 71.4301 40.8701 71.4301H44.1401C44.3002 71.4301 44.4301 71.3002 44.4301 71.1401V70.8701C44.4301 70.7099 44.3002 70.5801 44.1401 70.5801Z" fill="#E7EEF5"/>
    <path d="M44.1302 70H40.8602C40.3802 70 39.9902 70.39 39.9902 70.87V71.14C39.9902 71.62 40.3802 72.01 40.8602 72.01H44.1302C44.6102 72.01 45.0002 71.62 45.0002 71.14V70.87C45.0002 70.39 44.6102 70 44.1302 70Z" fill="#BEC9D6"/>
    <path d="M36.86 60H35.14C35.0627 60 35 60.0627 35 60.14V61.86C35 61.9373 35.0627 62 35.14 62H36.86C36.9373 62 37 61.9373 37 61.86V60.14C37 60.0627 36.9373 60 36.86 60Z" fill="white"/>
    <path d="M36.8598 59H35.1498C34.5198 59 34.0098 59.51 34.0098 60.14V61.85C34.0098 62.48 34.5198 62.99 35.1498 62.99H36.8598C37.4898 62.99 37.9998 62.48 37.9998 61.85V60.14C37.9998 59.51 37.4898 59 36.8598 59Z" fill="#2385DD"/>
    <path d="M36.86 65H35.14C35.0627 65 35 65.0627 35 65.14V66.86C35 66.9373 35.0627 67 35.14 67H36.86C36.9373 67 37 66.9373 37 66.86V65.14C37 65.0627 36.9373 65 36.86 65Z" fill="white"/>
    <path d="M36.8598 64H35.1498C34.5198 64 34.0098 64.51 34.0098 65.14V66.85C34.0098 67.48 34.5198 67.99 35.1498 67.99H36.8598C37.4898 67.99 37.9998 67.48 37.9998 66.85V65.14C37.9998 64.51 37.4898 64 36.8598 64Z" fill="#8095AD"/>
    <path d="M36.86 70H35.14C35.0627 70 35 70.0627 35 70.14V71.86C35 71.9373 35.0627 72 35.14 72H36.86C36.9373 72 37 71.9373 37 71.86V70.14C37 70.0627 36.9373 70 36.86 70Z" fill="white"/>
    <path d="M36.8598 69H35.1498C34.5198 69 34.0098 69.51 34.0098 70.14V71.85C34.0098 72.48 34.5198 72.99 35.1498 72.99H36.8598C37.4898 72.99 37.9998 72.48 37.9998 71.85V70.14C37.9998 69.51 37.4898 69 36.8598 69Z" fill="#BEC9D6"/>
    <path d="M35.2603 55.0002L39.0003 48.7002L42.7403 55.0002H35.2603Z" fill="#E7EEF5"/>
    <path d="M39.0001 50.6602L40.9901 54.0002H37.0201L39.0001 50.6602ZM39.0001 47.2402C38.8301 47.2402 38.6601 47.3202 38.5601 47.4902L33.9601 55.2302C33.7601 55.5702 34.0001 56.0102 34.4001 56.0102H43.5901C43.9901 56.0102 44.2401 55.5802 44.0301 55.2302L39.4301 47.4902C39.3301 47.3202 39.1601 47.2402 38.9901 47.2402H39.0001Z" fill="#8095AD"/>
    <path d="M39.73 55.0005L45.25 45.4604L50.77 55.0005H39.73Z" fill="white"/>
    <path d="M45.2499 47.4602L49.0299 54.0002H41.4599L45.2399 47.4602M45.2399 43.9702C45.0699 43.9702 44.8999 44.0502 44.7999 44.2202L38.4299 55.2302C38.2299 55.5702 38.4799 56.0002 38.8699 56.0002H51.5999C51.9899 56.0002 52.2399 55.5702 52.0399 55.2302L45.6699 44.2202C45.5699 44.0502 45.3999 43.9702 45.2299 43.9702H45.2399Z" fill="#8095AD"/>
    <path d="M83.3203 99.4697C83.3203 99.4697 83.2003 99.4697 83.1303 99.3897L78.6103 94.8697C78.5403 94.7997 78.5303 94.7197 78.5303 94.6797C78.5303 94.6397 78.5303 94.5597 78.6103 94.4897C78.6903 94.4197 78.7603 94.4097 78.8003 94.4097C78.8403 94.4097 78.9203 94.4097 78.9903 94.4897L83.5103 99.0097C83.5803 99.0797 83.5903 99.1597 83.5903 99.1997C83.5903 99.2397 83.5903 99.3197 83.5103 99.3897C83.4403 99.4597 83.3603 99.4697 83.3203 99.4697Z" fill="white"/>
    <path d="M78.8001 93.8799C78.6001 93.8799 78.3901 93.9599 78.2301 94.1099C77.9201 94.4199 77.9201 94.9299 78.2301 95.2399L82.7501 99.7599C82.9101 99.9199 83.1101 99.9899 83.3201 99.9899C83.5301 99.9899 83.7301 99.9099 83.8901 99.7599C84.2001 99.4499 84.2001 98.9399 83.8901 98.6299L79.3701 94.1099C79.2101 93.9499 79.0101 93.8799 78.8001 93.8799Z" fill="#E7EEF5"/>
    <path d="M78.8003 99.4697C78.8003 99.4697 78.6803 99.4697 78.6103 99.3897C78.5403 99.3197 78.5303 99.2397 78.5303 99.1997C78.5303 99.1597 78.5303 99.0797 78.6103 99.0097L83.1303 94.4897C83.2003 94.4197 83.2803 94.4097 83.3203 94.4097C83.3603 94.4097 83.4403 94.4097 83.5103 94.4897C83.5803 94.5697 83.5903 94.6397 83.5903 94.6797C83.5903 94.7197 83.5903 94.7997 83.5103 94.8697L78.9903 99.3897C78.9203 99.4597 78.8403 99.4697 78.8003 99.4697Z" fill="white"/>
    <path d="M83.3201 93.8799C83.1201 93.8799 82.9101 93.9599 82.7501 94.1099L78.2301 98.6299C77.9201 98.9399 77.9201 99.4499 78.2301 99.7599C78.3901 99.9199 78.5901 99.9899 78.8001 99.9899C79.0101 99.9899 79.2101 99.9099 79.3701 99.7599L83.8901 95.2399C84.2001 94.9299 84.2001 94.4199 83.8901 94.1099C83.7301 93.9499 83.5301 93.8799 83.3201 93.8799Z" fill="#E7EEF5"/>
    <path d="M65 5.25C66.2426 5.25 67.25 4.24264 67.25 3C67.25 1.75736 66.2426 0.75 65 0.75C63.7574 0.75 62.75 1.75736 62.75 3C62.75 4.24264 63.7574 5.25 65 5.25Z" fill="white"/>
    <path d="M65 1.5C65.83 1.5 66.5 2.17 66.5 3C66.5 3.83 65.83 4.5 65 4.5C64.17 4.5 63.5 3.83 63.5 3C63.5 2.17 64.17 1.5 65 1.5ZM65 0C63.34 0 62 1.34 62 3C62 4.66 63.34 6 65 6C66.66 6 68 4.66 68 3C68 1.34 66.66 0 65 0Z" fill="#E7EEF5"/>
    <path d="M14.4902 16.8002L16.1802 18.4902L14.4902 20.1802L12.8002 18.4902L14.4902 16.8002ZM14.4902 14.1802C14.3602 14.1802 14.2302 14.2302 14.1402 14.3302L10.3302 18.1402C10.1302 18.3402 10.1302 18.6502 10.3302 18.8502L14.1402 22.6602C14.2402 22.7602 14.3702 22.8102 14.4902 22.8102C14.6102 22.8102 14.7502 22.7602 14.8402 22.6602L18.6502 18.8502C18.8502 18.6502 18.8502 18.3402 18.6502 18.1402L14.8402 14.3302C14.7402 14.2302 14.6102 14.1802 14.4902 14.1802Z" fill="#2385DD"/>
    <path d="M17 79H15C14.4477 79 14 79.4477 14 80C14 80.5523 14.4477 81 15 81H17C17.5523 81 18 80.5523 18 80C18 79.4477 17.5523 79 17 79Z" fill="#8095AD"/>
    <path d="M11.09 79H10.91C10.4074 79 10 79.4074 10 79.91V80.09C10 80.5926 10.4074 81 10.91 81H11.09C11.5926 81 12 80.5926 12 80.09V79.91C12 79.4074 11.5926 79 11.09 79Z" fill="#2385DD"/>
    <path d="M15.5 91.25C15.9142 91.25 16.25 90.9142 16.25 90.5C16.25 90.0858 15.9142 89.75 15.5 89.75C15.0858 89.75 14.75 90.0858 14.75 90.5C14.75 90.9142 15.0858 91.25 15.5 91.25Z" fill="white"/>
    <path d="M15.5 89C14.67 89 14 89.67 14 90.5C14 91.33 14.67 92 15.5 92C16.33 92 17 91.33 17 90.5C17 89.67 16.33 89 15.5 89Z" fill="#4C5866"/>
    <path d="M99.1602 36.6896C99.1602 36.6896 99.1302 36.6896 99.1102 36.6696L95.2402 33.9596V33.8096L99.1102 31.0996C99.1102 31.0996 99.1402 31.0996 99.1602 31.0996C99.2002 31.0996 99.2502 31.1196 99.2502 31.1796V36.6096C99.2502 36.6096 99.2002 36.6996 99.1602 36.6996V36.6896Z" fill="white"/>
    <path d="M98.5002 32.4398V35.3298L96.4402 33.8898L98.5002 32.4498M99.1602 30.3398C99.0002 30.3398 98.8302 30.3898 98.6802 30.4898L94.8102 33.1998C94.3302 33.5298 94.3302 34.2398 94.8102 34.5698L98.6802 37.2798C98.8302 37.3898 99.0002 37.4298 99.1602 37.4298C99.6002 37.4298 100 37.0798 100 36.5898V31.1598C100 30.6598 99.5902 30.3198 99.1602 30.3198V30.3398Z" fill="#4C5866"/>
    <path d="M88.16 79H82.84C82.3761 79 82 79.3761 82 79.84V80.16C82 80.6239 82.3761 81 82.84 81H88.16C88.6239 81 89 80.6239 89 80.16V79.84C89 79.3761 88.6239 79 88.16 79Z" fill="#8095AD"/>
    <path d="M79 79H21C20.4477 79 20 79.4477 20 80C20 80.5523 20.4477 81 21 81H79C79.5523 81 80 80.5523 80 80C80 79.4477 79.5523 79 79 79Z" fill="#4C5866"/>
  </g>
  <defs>
    <clipPath id="clip0_2546_7248">
      <rect width="100" height="100" fill="white"/>
    </clipPath>
  </defs>
</svg>